<svg xmlns="http://www.w3.org/2000/svg" viewBox="0 0 783.85 330.36"><defs><style>.cls-1{fill:#fe0000;}.cls-2{fill:#ec3436;}.cls-3{fill:#ec3237;}.cls-4{fill:#39418a;}.cls-5{fill:#211f20;}.cls-6{fill:#201e1f;}.cls-7{fill:#1f1d1e;}.cls-8{fill:#1f1e1e;}</style></defs><g id="Layer_2" data-name="Layer 2"><g id="Layer_1-2" data-name="Layer 1"><path class="cls-1" d="M188.59,32.07A339,339,0,0,1,211.88,0c19.84,24.77,38,51.81,47.24,82.46a95.2,95.2,0,0,1,3.48,40.14,55,55,0,0,1-15.15,29.85c2.45-9.1,2.62-19.09-1.48-27.74A37.36,37.36,0,0,0,217.06,103c-15.71-2.5-32.27,6.46-38.91,20.88-4.41,8.8-4.44,19.19-1.78,28.51-12.77-12.21-17.49-30.74-15.86-47.95C162.78,78.25,174.75,54,188.59,32.07Z"/><path class="cls-1" d="M82,76.81c7.93,8,16.12,15.63,24.73,22.85,16.83,14.18,34.89,26.92,50.81,42.17a155.16,155.16,0,0,1,23.3,28c-9.87.15-19.74-.09-29.61.12-.18,30.34,0,60.69-.08,91-26.34-17.6-48.85-41.84-61.4-71.17C74.35,154.38,74.12,114.13,82,76.81Z"/><path class="cls-1" d="M0,202.22c15.57-6.75,33.36-9.39,49.92-4.92,11.76,2.88,22.46,9,32.17,16.07,21,15.74,37.4,36.54,56,54.87,8.26,8.16,17.13,16,27.68,21.09,6.08,2.95,12.79,4.06,19.38,5.24a113,113,0,0,0,39.41-.79c8.42-1.39,16.82-3.39,25.41-3.29a65.86,65.86,0,0,1,21.33,3.88c-11,2.25-21.93,5.4-32,10.39-12.11,5.7-23.05,13.7-35.61,18.45-15.44,6.13-32.28,7.47-48.75,7.09-22.48-.24-44.4-9-61.69-23.21C68,286.54,51.33,258.16,31.29,233,22.16,221.55,12.12,210.61,0,202.22Z"/><path class="cls-2" d="M207.37,108.33a68.79,68.79,0,0,1,9.08.18l1,4.86,3.1.76c1.09-1.23,2.19-2.45,3.29-3.68a50.06,50.06,0,0,1,7.9,4.65q-1,2.36-2,4.71c2,2.24,4.89,1.46,7.47.82a76.36,76.36,0,0,1,4.37,7.53l-3.7,3.11c.3,1.16.59,2.33.9,3.49l4.64.62a35.61,35.61,0,0,1,.07,9.34l-5,.71c-1,2.95.88,5.07,3.14,6.7-1.43,2.58-2.9,5.13-4.53,7.59l-4.46-1.41-3.48,1.88a33,33,0,0,1,2.16-4.63l5,1.63q1.26-2.38,2.41-4.8-1.62-1.5-3.24-3,.57-2.76,1.16-5.51c1.66-.44,3.33-.88,5-1.3,0-1.75,0-3.51,0-5.26q-2.45-.53-4.89-1-.66-2.87-1.28-5.73l3.57-3c-.87-1.46-1.74-2.9-2.63-4.33-1.51.34-3,.74-4.54,1a55.45,55.45,0,0,1-4.36-3.74c.54-1.58,1.08-3.16,1.6-4.74q-2.31-1.33-4.66-2.6-1.7,1.73-3.38,3.47c-1.84-.51-3.67-1-5.51-1.46-.3-1.53-.61-3.06-.91-4.59h-5.25c-.37,1.52-.73,3-1.08,4.58-1.87.5-3.75,1-5.61,1.54-1-1.17-2-2.35-3-3.52q-2.41,1.14-4.78,2.36.62,2.46,1.27,4.9c-1.31,1.32-2.61,2.66-3.88,4l-4.71-1.31q-1.39,2.16-2.75,4.34c1.23,1.17,2.45,2.33,3.69,3.48-.5,1.73-1,3.45-1.45,5.19a36,36,0,0,0-4.57,1.52,48.35,48.35,0,0,0-.42,4.95l4.94,1.26c.48,1.81,1,3.61,1.46,5.43l-3.63,3.31c.93,1.55,1.88,3.08,2.86,4.61l4.54-1.56q1.54,1.92,3.14,3.84c-1.6-.19-3.12-.69-4.69-1-1.29.45-2.59.86-3.88,1.26a71.36,71.36,0,0,1-4.62-7.87l3.68-2.84c-.19-1.18-.39-2.35-.59-3.52l-5-.82a79.29,79.29,0,0,1,0-9c2.77-.29,5.38-1.08,6.06-4.11l-4-3.35a68.84,68.84,0,0,1,4.4-7.81l4.72,1.41,2.5-2.25c-.61-1.5-1.23-3-1.83-4.49a61.79,61.79,0,0,1,8-4.71c1,1.25,2,2.5,3,3.77l3.39-.85C206.76,111.64,207.06,110,207.37,108.33Z"/><path class="cls-3" d="M193.08,142.55c-1.58-9.85,6-20,15.91-21.24a19.13,19.13,0,0,1,19.49,9.57,18.94,18.94,0,0,1-2,21.17c-.7,1.12-2.17,1-3.24,1.47,1.79-3.19,4.17-6.14,5-9.78,2.33-8.82-4.15-18.78-13.19-20.14-8.34-1.86-17.31,3.75-19.44,12-.81,3.92-.85,8.31,1.26,11.86,1.13,2.29,3.25,4.31,2.81,7.1A19.25,19.25,0,0,1,193.08,142.55Z"/><path class="cls-3" d="M209.33,129.94c7.48-2.35,15.35,5.88,12.47,13.25-2,7-11.84,9.81-17,4.47C198.66,142.58,201.56,131.5,209.33,129.94Z"/><path class="cls-4" d="M192.07,170.35c13.23.1,26.47-.29,39.69.24.18,26.28,0,52.57.09,78.86.05,5.07-1.2,10.3-4.51,14.27-6,8-18.53,9.79-26.66,4-6-4-9.13-11.28-8.77-18.34C192,223,191.72,196.69,192.07,170.35Z"/><path class="cls-4" d="M272.67,170.35h39.67c.08,14,0,28,.06,42,13.57.06,27.14.11,40.71,0,.15-13.89-.26-27.79.2-41.67,13.17-.58,26.4-.27,39.59-.13.26,30.63,0,61.27.11,91.9-.08,10.6.17,21.21-.14,31.81-13.22.14-26.44.16-39.66,0-.21-14,0-28-.09-42-13.57.19-27.13.07-40.69.06-.12,14,0,27.95-.07,41.93-13.23.27-26.46,0-39.69.12Q272.67,232.32,272.67,170.35Z"/><path class="cls-5" d="M408,170.3h7.39c0,9.94.06,19.87,0,29.81q-3.67,0-7.34,0C408,190.13,408,180.22,408,170.3Z"/><path class="cls-5" d="M659.68,170.3c2.38,0,4.77,0,7.16,0,0,8.35,0,16.7,0,25,3.37.14,6.75.14,10.14.13,0,1.55-.07,3.11-.1,4.68-5.73.08-11.47.09-17.19,0C659.65,190.2,659.69,180.25,659.68,170.3Z"/><path class="cls-6" d="M426.46,170.3l6.64,0c3.5,6.8,7,13.57,10.44,20.41-.15-6.79-.65-13.58-.45-20.38l6.32,0q.06,14.9,0,29.81c-2.2,0-4.4,0-6.59,0-3.61-6.64-7.18-13.3-10.24-20.21-.29,6.73.49,13.44.18,20.17q-3.13.06-6.26.07C426.4,190.18,426.43,180.24,426.46,170.3Z"/><path class="cls-6" d="M460.51,170.57c5.84-.39,12.19-1.22,17.56,1.69,4.29,2.38,5.86,7.57,5.85,12.19,0,4.9-1.33,10.45-5.75,13.23-5.28,3.2-11.77,2.77-17.69,2.38C460.43,190.23,460.39,180.4,460.51,170.57Zm7.05,3.62c-.18,7.35-.1,14.71-.05,22.07,2.71-.24,6.21-.54,7.42-3.46a20.74,20.74,0,0,0-.54-17.08A19.56,19.56,0,0,0,467.56,174.19Z"/><path class="cls-6" d="M492.74,170.3l7.21,0c.17,6.75-.11,13.51.05,20.26-.11,2.31,1.16,5.55,4,5,2.33.41,3.77-2,3.81-4.07.2-7.06,0-14.13.06-21.2h7.25c0,6.72.13,13.45-.06,20.16,0,4.18-2.71,8.46-6.93,9.44-3.95,1-8.54.8-11.94-1.64-2.74-2-3.44-5.69-3.44-8.91C492.7,183,492.75,176.65,492.74,170.3Z"/><path class="cls-6" d="M528.53,171.87c4.23-2.39,9.36-2.07,14-1.13-.28,1.56-.56,3.12-.85,4.68-3.26-.77-8.56-1.95-10,2.11,0,4.45,5.61,4.76,8.38,7.06,4.47,2.39,5.6,9.1,1.61,12.45-4.79,4.17-11.79,3.64-17.59,2.39.31-1.52.62-3,.94-4.55,3.21.48,6.55,1.07,9.77.28,2.27-.75,3-4.09,1.15-5.62-3.27-2.85-8.17-3.73-10.47-7.67C523.18,178.45,525.12,173.7,528.53,171.87Z"/><path class="cls-6" d="M550,170.27c7.1,0,14.2,0,21.3,0,0,1.67,0,3.35-.05,5-2.32,0-4.63,0-6.94,0-.06,8.26,0,16.52,0,24.78l-7.2,0c-.07-8.25,0-16.49-.05-24.73-2.35,0-4.69,0-7-.08C550,173.59,550,171.93,550,170.27Z"/><path class="cls-6" d="M579.66,170.55c5.89-.25,12.23-1.27,17.76,1.34,3.69,1.63,4.77,6.58,2.89,9.94-.95,1.86-2.94,2.8-4.52,4,4.61,3.35,4.51,9.36,6.35,14.24-2.53,0-5,0-7.56,0-1-3.19-1.39-6.55-2.54-9.69-.79-2.16-3.22-2.36-5.15-2.66-.1,4.15,0,8.3-.18,12.45-2.37,0-4.74,0-7.1-.06C579.58,190.25,579.51,180.4,579.66,170.55Zm7.19,3.61c0,3.32,0,6.64,0,10,2.17-.49,5.06-.24,6.29-2.5,1.18-1.77.44-3.95.27-5.88A15.77,15.77,0,0,0,586.85,174.16Z"/><path class="cls-6" d="M610.83,170.3q3.61,0,7.25,0c-.05,9.93,0,19.86,0,29.8-2.42,0-4.83,0-7.24-.12C610.82,190.1,610.8,180.2,610.83,170.3Z"/><path class="cls-6" d="M626.23,200.06c2.77-9.93,5.5-19.88,8.42-29.76,2.87,0,5.74-.1,8.61.08,3.14,9.72,5,19.86,7.89,29.67-2.34,0-4.67,0-7,0-.62-2.27-1.22-4.55-1.82-6.82H634.9c-.61,2.3-1.21,4.6-1.83,6.9C630.79,200.15,628.5,200.11,626.23,200.06Zm12.7-24.77a100.85,100.85,0,0,0-3.21,13.83c2,0,4,0,6-.06C641,184.44,639.85,179.88,638.93,175.29Z"/><path class="cls-6" d="M441.25,216.45a49.24,49.24,0,0,1,6.54.21c3.88,6.63,7.07,13.66,10.63,20.47-.28-6.86-.64-13.72-.5-20.6q3.12-.06,6.25-.09c0,10,.05,20.07,0,30.1l-6.66-.25c-3.37-6.69-7.24-13.15-10-20.11-.22,6.76.19,13.53,0,20.3h-6.21Q441.12,231.47,441.25,216.45Z"/><path class="cls-6" d="M475.28,216.52c2.41,0,4.82,0,7.24,0,0,10,0,19.94,0,29.91-2.42.08-4.84.08-7.25,0C475.22,236.45,475.27,226.48,475.28,216.52Z"/><path class="cls-6" d="M490.28,216.53c2.63-.06,5.28-.08,7.92-.06q2.7,11.7,4.95,23.5c2-7.76,3.23-15.69,5-23.49,2.62,0,5.24,0,7.87.08-2.85,10-5.92,19.88-8.86,29.83-2.73.09-5.47.1-8.19.13Q494.5,231.57,490.28,216.53Z"/><path class="cls-6" d="M523.71,216.46c5.57,0,11.14,0,16.71,0l0,4.82c-3.11,0-6.22,0-9.32,0,0,2.41-.07,4.83-.05,7.24,2.93,0,5.86,0,8.8.08l0,4.47c-3,.07-5.91.07-8.86.1a75.86,75.86,0,0,0,.08,8.53c3.33.07,6.65.05,10,0,0,1.57,0,3.14,0,4.71-5.78,0-11.55,0-17.32,0C523.69,236.48,523.71,226.47,523.71,216.46Z"/><path class="cls-6" d="M550.49,216.89c5.88-.52,12.24-1.36,17.75,1.28,3.84,1.64,5,6.94,2.85,10.34-1,1.69-2.88,2.61-4.45,3.73,4.85,3.17,4.56,9.4,6.43,14.28a49,49,0,0,1-7.57-.35c-1.32-3.33-1.18-7.16-3-10.29-.88-1.71-3.14-1.25-4.67-1.76-.1,4.12,0,8.24-.19,12.36h-7.15C550.44,236.61,550.47,226.75,550.49,216.89Zm7.22,3.59a94.53,94.53,0,0,0,.09,10.1c1.91-.44,4.23-.23,5.69-1.78,2-1.67,1.19-4.43,1-6.64A12.19,12.19,0,0,0,557.71,220.48Z"/><path class="cls-6" d="M608.61,216.47q3.6,0,7.21.07c0,10,.15,20-.06,29.94h-7.15C608.62,236.48,608.59,226.47,608.61,216.47Z"/><path class="cls-6" d="M624,216.5c7.08-.06,14.16,0,21.24,0,0,1.69,0,3.38.05,5.07-2.31,0-4.62,0-6.92.07-.16,8.28.05,16.57-.1,24.85h-7.15c-.16-8.27,0-16.55-.08-24.83-2.36-.07-4.72-.09-7.07-.11Q624,219,624,216.5Z"/><path class="cls-6" d="M651.42,216.51c2.54,0,5.09,0,7.64-.06,1.57,4.55,3.45,9,4.94,13.55,1.45-4.53,3.06-9,4.47-13.53,2.47,0,4.93,0,7.4.05-2.64,6.13-5.93,12-8.5,18.12-.54,3.91-.1,7.9-.23,11.85h-7.22c-.36-4.86,1.09-10.14-1.39-14.62C656.13,226.76,653.7,221.67,651.42,216.51Z"/><path class="cls-6" d="M699.26,216.7c3.56-.8,7.72-.78,10.74,1.56,4,3,5.1,8.44,5.1,13.19s-1.1,10-5,13.08c-5.65,4.07-15.12,2.68-18-4.11C688.58,232.39,689.76,219.85,699.26,216.7Zm2.36,3.82c-1.31,1.41-3.08,2.7-3.29,4.77-.89,5.58-1.32,12,2.12,16.82,2.15.09,4.79.29,5.83-2.08a27,27,0,0,0,.53-15.78C706.35,221.78,703.88,220.7,701.62,220.52Z"/><path class="cls-6" d="M408,262.56q3.66,0,7.32,0c.1,4,0,8.07.09,12.1,2.79,0,5.59,0,8.38,0,.11-4,.08-8,.07-12,2.4-.08,4.8-.1,7.21-.09,0,10,0,19.93,0,29.9-2.41,0-4.81-.05-7.22-.09,0-4.21,0-8.41,0-12.62-2.78-.08-5.57-.1-8.34,0-.21,4.24-.12,8.48-.12,12.73H408C408,282.48,408,272.52,408,262.56Z"/><path class="cls-6" d="M449.34,262.67c3.78-.91,8.27-.65,11.28,2.08,3.48,3.19,4.53,8.15,4.47,12.69s-1.07,9.38-4.47,12.61c-4.7,3.8-12.33,3.75-16.62-.67-3.62-4.32-4.41-10.41-3.52-15.82C441.29,268.75,444.37,263.91,449.34,262.67Zm-.81,8.18c-1.25,5.35-1.2,11.25,1.17,16.3,1.65.53,3.61,1.52,5.19.23,2.35-2.27,2.46-5.88,2.66-8.94,0-3.76.15-8.26-2.83-11C452.05,265.53,449.1,268.21,448.53,270.85Z"/><path class="cls-6" d="M479.71,264.16c4-2.12,8.77-2.11,13.17-1.38-.33,1.45-.66,2.91-1,4.38-3.57-.34-7.91-.31-10.09,3.06-2.78,4.47-2.85,10.93.41,15.19,2.37,2.87,6.47,2.45,9.8,2.28.11,1.52.24,3.05.36,4.58-5.45.66-11.74.8-16-3.18C469.6,282.28,470.84,268.64,479.71,264.16Z"/><path class="cls-6" d="M534.88,262.55c2.4,0,4.8,0,7.21.06,0,9.92,0,19.85,0,29.78l-7.23.05C534.89,282.48,534.87,272.52,534.88,262.55Z"/><path class="cls-6" d="M554.46,262.56q3.84,0,7.69,0c2.41,7.08,3.69,14.52,6.62,21.42,1.13-7.32,3.5-14.36,5.53-21.45,2.56,0,5.12,0,7.68.06.87,9.94,1.57,19.89,2.31,29.84l-6.37-.07c-.29-6.82-1.06-13.6-1.6-20.39-1.33,6.79-4,13.21-5.92,19.85-1.73,0-3.43,0-5.14,0-2-6.62-4.33-13.13-5.69-19.91-.91,6.81-1.38,13.67-1.83,20.53h-6.06C552.56,282.48,553.35,272.51,554.46,262.56Z"/><path class="cls-6" d="M594.19,262.6c2.39-.05,4.77-.05,7.17,0,.07,10,0,19.93,0,29.89-2.43,0-4.84,0-7.25-.06C594.15,282.46,594.05,272.53,594.19,262.6Z"/><path class="cls-6" d="M612.45,262.52a52,52,0,0,1,6.48.2c3.94,6.59,7.18,13.62,10.68,20.47-.13-6.86-.8-13.71-.45-20.57,2.09-.06,4.19-.08,6.3-.09.06,10,0,19.93,0,29.9h-6.66c-3.55-6.72-7.25-13.38-10.28-20.36,0,6.79.39,13.57.19,20.36h-6.33C612.45,282.46,612.33,272.49,612.45,262.52Z"/><path class="cls-6" d="M646.5,262.56c2.39,0,4.79,0,7.2,0,.09,4,0,8.09.12,12.14,2.74-.09,5.5-.15,8.25-.17,0-4,0-8,.07-12,2.37-.05,4.74-.07,7.13-.07.08,10,0,19.94,0,29.91h-7.2c-.05-4.24,0-8.48,0-12.72-2.75-.06-5.49-.05-8.23,0-.15,4.25-.05,8.5-.06,12.75h-7.3C646.45,282.48,646.39,272.52,646.5,262.56Z"/><path class="cls-6" d="M693.68,265.2c4.25-3.1,9.83-3.31,14.84-2.41-.35,1.48-.68,2.95-1,4.44-2.84-.15-6.07-.65-8.43,1.32-4.36,3.56-4.39,10.36-2.38,15.18,1.88,4.25,7,4.34,11,3.95.08,1.5.17,3,.24,4.53-6.37,1.11-14.45.51-18-5.72C686.25,279.75,687,269.83,693.68,265.2Z"/><path class="cls-6" d="M759.41,262.56c2.55,0,5.1,0,7.65.07,1.68,4.43,3.31,8.87,4.93,13.32,1.58-4.43,2.87-9,4.49-13.37,2.44-.05,4.9-.05,7.37,0-2.41,5.18-4.9,10.33-7.41,15.46-2.45,4.41-1,9.65-1.34,14.45-2.42,0-4.83-.05-7.22-.11-.37-4.81,1.1-10.06-1.36-14.48C764.15,272.76,761.7,267.7,759.41,262.56Z"/><path class="cls-7" d="M407.93,216.47l7.24,0c0,6.31,0,12.63,0,18.94,0,2.11.17,4.52,1.88,6,2.25,1.65,6,0,5.88-3,.36-7.31,0-14.65.2-22,2.42,0,4.83,0,7.26,0-.05,7,.26,13.95-.13,20.92-.2,4.12-3,8.17-7.24,9-3.78.65-8.11.7-11.38-1.6a11.42,11.42,0,0,1-3.68-8.28C407.86,229.81,408,223.14,407.93,216.47Z"/><path class="cls-7" d="M585.45,217.63c4-1.91,8.65-1.42,12.88-.59-.29,1.55-.58,3.11-.86,4.67-3.75-1-8.67-1.45-10.58,2.75,2.72,5,9.77,4.95,12.29,10.11,1.92,3.45.15,8-3.12,9.86-4.87,3-11,2.46-16.33,1.28.34-1.51.72-3,1.1-4.51,3.46.55,7.57,1.79,10.74-.35a3.41,3.41,0,0,0-.46-5.55c-3.5-2.41-8.24-3.63-10.2-7.76C578.86,223.73,581.72,219.05,585.45,217.63Z"/><path class="cls-7" d="M724.14,216.51c5.57-.08,11.15,0,16.73,0,0,1.58-.06,3.16-.08,4.74-3.14,0-6.28,0-9.4.06-.06,2.68-.06,5.36,0,8.05,2.94.17,5.89.18,8.84.24q0,2.16,0,4.32c-3,0-5.9,0-8.84.07-.09,4.17,0,8.35-.08,12.53-2.4-.05-4.8-.13-7.18-.23C724.11,236.37,724.05,226.44,724.14,216.51Z"/><path class="cls-7" d="M501.07,262.58q3.53,0,7.07,0c0,4,0,8,.08,12,2.8,0,5.61,0,8.42-.06.1-4,.05-8,.1-12q3.56,0,7.12.06c.08,9.94,0,19.89,0,29.84h-7.19c0-4.24,0-8.48-.08-12.71-2.81-.08-5.61-.09-8.41,0-.13,4.24-.06,8.48-.05,12.73-2.42,0-4.84,0-7.25-.07C501,282.45,500.74,272.51,501.07,262.58Z"/><path class="cls-7" d="M716.67,262.52c2.36,0,4.73,0,7.1.11.12,9.93.1,19.85,0,29.78l-7.16,0C716.66,282.47,716.54,272.49,716.67,262.52Z"/><path class="cls-8" d="M732.1,262.63c7-.18,14.1-.05,21.16-.09,0,1.66,0,3.31,0,5-2.33,0-4.64,0-6.94.1-.15,8.25,0,16.51-.07,24.77-2.41,0-4.8,0-7.2,0,0-8.26,0-16.52,0-24.78-2.3-.07-4.6-.09-6.88-.1C732.13,265.89,732.1,264.26,732.1,262.63Z"/></g></g></svg>